<svg width="31" height="30" viewBox="0 0 31 30" fill="none" xmlns="http://www.w3.org/2000/svg">
<path d="M26.4986 14.3563C26.2145 14.3563 25.942 14.2435 25.7411 14.0426C25.5402 13.8417 25.4274 13.5692 25.4274 13.2851C25.4251 11.013 24.5215 8.83465 22.9149 7.22803C21.3083 5.62142 19.1299 4.71783 16.8578 4.71556C16.5737 4.71556 16.3013 4.60271 16.1004 4.40182C15.8995 4.20093 15.7866 3.92847 15.7866 3.64437C15.7866 3.36027 15.8995 3.08781 16.1004 2.88692C16.3013 2.68603 16.5737 2.57317 16.8578 2.57317C19.6979 2.57629 22.4207 3.70587 24.4289 5.71408C26.4371 7.72228 27.5667 10.4451 27.5698 13.2851C27.5698 13.5692 27.4569 13.8417 27.256 14.0426C27.0551 14.2435 26.7827 14.3563 26.4986 14.3563ZM23.285 13.2851C23.285 11.5805 22.6078 9.94576 21.4025 8.74043C20.1972 7.5351 18.5624 6.85795 16.8578 6.85795C16.5737 6.85795 16.3013 6.97081 16.1004 7.1717C15.8995 7.37259 15.7866 7.64505 15.7866 7.92915C15.7866 8.21325 15.8995 8.48571 16.1004 8.6866C16.3013 8.88749 16.5737 9.00034 16.8578 9.00034C17.9942 9.00034 19.0841 9.45177 19.8876 10.2553C20.6912 11.0589 21.1426 12.1487 21.1426 13.2851C21.1426 13.5692 21.2555 13.8417 21.4564 14.0426C21.6572 14.2435 21.9297 14.3563 22.2138 14.3563C22.4979 14.3563 22.7704 14.2435 22.9713 14.0426C23.1721 13.8417 23.285 13.5692 23.285 13.2851ZM25.6234 26.3151L26.5982 25.1915C27.2186 24.569 27.567 23.726 27.567 22.8471C27.567 21.9683 27.2186 21.1253 26.5982 20.5028C26.565 20.4696 23.9877 18.4868 23.9877 18.4868C23.3691 17.898 22.5475 17.5702 21.6935 17.5714C20.8395 17.5726 20.0188 17.9027 19.4019 18.4933L17.3602 20.2136C15.6936 19.5239 14.1797 18.5117 12.9054 17.2352C11.6311 15.9587 10.6216 14.443 9.93469 12.7752L11.6486 10.74C12.2396 10.1231 12.5702 9.30229 12.5715 8.44804C12.5729 7.59379 12.2451 6.77186 11.6561 6.15311C11.6561 6.15311 9.67118 3.57903 9.63797 3.54582C9.0268 2.93068 8.19816 2.5807 7.33107 2.57148C6.46399 2.56226 5.62809 2.89454 5.00398 3.49654L3.77211 4.56774C-3.50559 13.0109 12.166 28.5614 20.8877 28.2819C21.7684 28.287 22.6412 28.1156 23.4546 27.7778C24.268 27.44 25.0054 26.9426 25.6234 26.3151Z" fill="white"/>
</svg>
