<svg width="19" height="19" viewBox="0 0 19 19" fill="none" xmlns="http://www.w3.org/2000/svg">
<path d="M13.656 0.92995L1.46402 13.122C0.998362 13.5851 0.629199 14.136 0.377902 14.7428C0.126605 15.3496 -0.00183456 16.0002 1.97963e-05 16.6569V18C1.97963e-05 18.2652 0.105377 18.5195 0.292913 18.7071C0.48045 18.8946 0.734803 19 1.00002 19H2.34302C2.99978 19.0018 3.65039 18.8734 4.25718 18.6221C4.86396 18.3708 5.41488 18.0016 5.87802 17.5359L18.07 5.34395C18.6544 4.75812 18.9826 3.96443 18.9826 3.13695C18.9826 2.30948 18.6544 1.51578 18.07 0.92995C17.4757 0.361844 16.6852 0.0447998 15.863 0.0447998C15.0408 0.0447998 14.2503 0.361844 13.656 0.92995ZM16.656 3.92995L4.46402 16.122C3.90015 16.6824 3.13803 16.9979 2.34302 17H2.00002V16.6569C2.0021 15.8619 2.31759 15.0998 2.87802 14.536L15.07 2.34395C15.2836 2.13991 15.5676 2.02604 15.863 2.02604C16.1584 2.02604 16.4424 2.13991 16.656 2.34395C16.866 2.55447 16.9839 2.83964 16.9839 3.13695C16.9839 3.43426 16.866 3.71944 16.656 3.92995Z" fill="white"/>
</svg>
