<svg width="25" height="25" viewBox="0 0 25 25" fill="none" xmlns="http://www.w3.org/2000/svg">
<path d="M12.4987 0C9.73696 0.00303291 7.0892 1.10147 5.13635 3.05432C3.18351 5.00717 2.08506 7.65493 2.08203 10.4167C2.08203 15.9188 10.832 23.4719 11.8258 24.3156L12.4987 24.8844L13.1716 24.3156C14.1654 23.4719 22.9154 15.9188 22.9154 10.4167C22.9123 7.65493 21.8139 5.00717 19.861 3.05432C17.9082 1.10147 15.2604 0.00303291 12.4987 0ZM12.4987 15.625C11.4686 15.625 10.4616 15.3195 9.6051 14.7472C8.7486 14.1749 8.08103 13.3615 7.68683 12.4098C7.29262 11.4581 7.18948 10.4109 7.39044 9.40057C7.59141 8.39025 8.08745 7.46222 8.81585 6.73382C9.54425 6.00542 10.4723 5.50938 11.4826 5.30841C12.4929 5.10745 13.5401 5.21059 14.4918 5.60479C15.4435 5.999 16.257 6.66657 16.8293 7.52307C17.4016 8.37958 17.707 9.38656 17.707 10.4167C17.7054 11.7975 17.1561 13.1213 16.1797 14.0977C15.2033 15.0741 13.8795 15.6233 12.4987 15.625Z" fill="black"/>
<path d="M12.5 13.5415C14.2259 13.5415 15.625 12.1424 15.625 10.4165C15.625 8.69061 14.2259 7.2915 12.5 7.2915C10.7741 7.2915 9.375 8.69061 9.375 10.4165C9.375 12.1424 10.7741 13.5415 12.5 13.5415Z" fill="black"/>
</svg>
