<svg version="1.2" xmlns="http://www.w3.org/2000/svg" viewBox="0 0 25 25" width="25" height="25">
	<title>location-black-svg</title>
	<style>
		.s0 { fill: #ffffff } 
	</style>
	<path id="Layer" fill-rule="evenodd" class="s0" d="m19.9 3.1c1.9 1.9 3 4.6 3 7.3 0 5.5-8.7 13.1-9.7 13.9l-0.7 0.6-0.7-0.6c-1-0.8-9.7-8.4-9.7-13.9 0-2.7 1.1-5.4 3-7.3 2-2 4.6-3.1 7.4-3.1 2.8 0 5.4 1.1 7.4 3.1zm-3.7 11c1-1 1.5-2.3 1.5-3.7 0-1-0.3-2-0.9-2.9-0.5-0.8-1.4-1.5-2.3-1.9-1-0.4-2-0.5-3-0.3-1 0.2-2 0.7-2.7 1.4-0.7 0.8-1.2 1.7-1.4 2.7-0.2 1-0.1 2.1 0.3 3 0.4 1 1 1.8 1.9 2.3 0.9 0.6 1.9 0.9 2.9 0.9 1.4 0 2.7-0.5 3.7-1.5z"/>
	<path id="Layer" class="s0" d="m12.5 13.5c1.7 0 3.1-1.4 3.1-3.1 0-1.7-1.4-3.1-3.1-3.1-1.7 0-3.1 1.4-3.1 3.1 0 1.7 1.4 3.1 3.1 3.1z"/>
</svg>