<svg version="1.2" xmlns="http://www.w3.org/2000/svg" viewBox="0 0 25 25" width="25" height="25">
	<title>mail-black-svg</title>
	<defs>
		<clipPath clipPathUnits="userSpaceOnUse" id="cp1">
			<path d="m0 0h25v25h-25z"/>
		</clipPath>
	</defs>
	<style>
		.s0 { fill: #000000 } 
	</style>
	<filter id="f0">
		<feFlood flood-color="#ffffff" flood-opacity="1" />
		<feBlend mode="normal" in2="SourceGraphic"/>
		<feComposite in2="SourceAlpha" operator="in" />
	</filter>
	<g id="Clip-Path" clip-path="url(#cp1)" filter="url(#f0)">
		<g id="Layer">
			<path id="Layer" class="s0" d="m25 5.8l-8.8 8.7c-1 1-2.3 1.6-3.7 1.6-1.4 0-2.7-0.6-3.7-1.6l-8.8-8.7q0 0.2 0 0.5v12.5c0 1.3 0.6 2.7 1.5 3.6 1 1 2.3 1.6 3.7 1.6h14.6c1.4 0 2.7-0.6 3.7-1.6 0.9-0.9 1.5-2.3 1.5-3.6v-12.5q0-0.3 0-0.5z"/>
			<path id="Layer" class="s0" d="m14.7 13.1l9.5-9.5c-0.4-0.8-1.1-1.4-1.9-1.9-0.7-0.4-1.6-0.7-2.5-0.7h-14.6c-0.9 0-1.8 0.3-2.5 0.7-0.8 0.5-1.5 1.1-1.9 1.9l9.5 9.5c0.6 0.6 1.4 0.9 2.2 0.9 0.8 0 1.6-0.3 2.2-0.9z"/>
		</g>
	</g>
</svg>