<svg width="13" height="28" viewBox="0 0 13 28" fill="none" xmlns="http://www.w3.org/2000/svg">
<path d="M12.668 14.1063C12.6693 14.8303 12.5278 15.5474 12.2518 16.2167C11.9757 16.886 11.5705 17.4944 11.0592 18.007L2.05672 27.0094C1.84923 27.2169 1.56781 27.3335 1.27437 27.3335C0.980936 27.3335 0.699518 27.2169 0.492027 27.0094C0.284536 26.8019 0.167969 26.5205 0.167969 26.2271C0.167969 25.9337 0.284536 25.6522 0.492027 25.4447L9.4945 16.4423C10.1136 15.8225 10.4613 14.9823 10.4613 14.1063C10.4613 13.2302 10.1136 12.3901 9.4945 11.7702L0.492026 2.76776C0.284535 2.56027 0.167968 2.27885 0.167968 1.98542C0.167968 1.69198 0.284535 1.41056 0.492026 1.20307C0.699516 0.995583 0.980934 0.879015 1.27437 0.879015C1.56781 0.879015 1.84922 0.995583 2.05672 1.20307L11.0592 10.2055C11.5705 10.7181 11.9757 11.3265 12.2518 11.9958C12.5278 12.6651 12.6693 13.3823 12.668 14.1063Z" fill="white"/>
</svg>
