<svg width="13" height="28" viewBox="0 0 13 28" fill="none" xmlns="http://www.w3.org/2000/svg">
<path d="M0.167978 14.1063C0.166686 14.8303 0.308102 15.5474 0.584146 16.2167C0.860189 16.886 1.26544 17.4944 1.77674 18.007L10.7792 27.0094C10.9867 27.2169 11.2681 27.3335 11.5616 27.3335C11.855 27.3335 12.1364 27.2169 12.3439 27.0094C12.5514 26.8019 12.668 26.5205 12.668 26.2271C12.668 25.9337 12.5514 25.6522 12.3439 25.4447L3.34143 16.4423C2.72239 15.8225 2.37468 14.9823 2.37468 14.1063C2.37468 13.2302 2.72239 12.3901 3.34143 11.7702L12.3439 2.76776C12.5514 2.56027 12.668 2.27885 12.668 1.98542C12.668 1.69198 12.5514 1.41056 12.3439 1.20307C12.1364 0.995583 11.855 0.879015 11.5616 0.879015C11.2681 0.879015 10.9867 0.995583 10.7792 1.20307L1.77674 10.2056C1.26544 10.7181 0.860189 11.3265 0.584146 11.9958C0.308102 12.6651 0.166686 13.3823 0.167978 14.1063Z" fill="white"/>
</svg>
