<svg width="17" height="20" viewBox="0 0 17 20" fill="none" xmlns="http://www.w3.org/2000/svg">
<path d="M8.38011 5.00124C7.72086 5.00124 7.07641 5.19672 6.52826 5.56296C5.98012 5.9292 5.55289 6.44975 5.3006 7.05878C5.04832 7.66781 4.98231 8.33798 5.11092 8.98453C5.23954 9.63107 5.557 10.225 6.02316 10.6911C6.48932 11.1572 7.08324 11.4747 7.72983 11.6033C8.37641 11.7319 9.04661 11.6659 9.65568 11.4136C10.2647 11.1613 10.7853 10.7341 11.1516 10.186C11.5178 9.63791 11.7133 8.9935 11.7133 8.33428C11.7133 7.4503 11.3622 6.60253 10.7371 5.97746C10.112 5.35239 9.26413 5.00124 8.38011 5.00124ZM8.38011 10.0008C8.05048 10.0008 7.72826 9.90306 7.45419 9.71994C7.18011 9.53683 6.9665 9.27655 6.84036 8.97203C6.71421 8.66752 6.68121 8.33243 6.74552 8.00916C6.80982 7.68589 6.96855 7.38894 7.20163 7.15587C7.43471 6.92281 7.73167 6.76408 8.05497 6.69978C8.37826 6.63548 8.71336 6.66848 9.01789 6.79462C9.32243 6.92075 9.58272 7.13435 9.76585 7.40841C9.94898 7.68247 10.0467 8.00467 10.0467 8.33428C10.0467 8.77627 9.87113 9.20016 9.55858 9.51269C9.24603 9.82522 8.82212 10.0008 8.38011 10.0008Z" fill="#EE1922"/>
<path d="M8.37891 19.9999C7.67721 20.0035 6.98487 19.839 6.35986 19.52C5.73484 19.2011 5.19533 18.737 4.78652 18.1668C1.61078 13.7863 0 10.4933 0 8.37844C0 6.15634 0.882775 4.02525 2.45412 2.45399C4.02547 0.882726 6.15668 0 8.37891 0C10.6011 0 12.7323 0.882726 14.3037 2.45399C15.875 4.02525 16.7578 6.15634 16.7578 8.37844C16.7578 10.4933 15.147 13.7863 11.9713 18.1668C11.5625 18.737 11.023 19.2011 10.398 19.52C9.77294 19.839 9.0806 20.0035 8.37891 19.9999ZM8.37891 1.81901C6.63931 1.82099 4.97153 2.51289 3.74144 3.7429C2.51136 4.97292 1.81943 6.64061 1.81744 8.38011C1.81744 10.055 3.39489 13.1522 6.25814 17.101C6.50121 17.4358 6.8201 17.7083 7.1887 17.8962C7.55731 18.0841 7.96517 18.182 8.37891 18.182C8.79264 18.182 9.2005 18.0841 9.56911 17.8962C9.93772 17.7083 10.2566 17.4358 10.4997 17.101C13.3629 13.1522 14.9404 10.055 14.9404 8.38011C14.9384 6.64061 14.2465 4.97292 13.0164 3.7429C11.7863 2.51289 10.1185 1.82099 8.37891 1.81901Z" fill="#EE1922"/>
</svg>
