<svg width="20" height="20" viewBox="0 0 20 20" fill="none" xmlns="http://www.w3.org/2000/svg">
<path d="M10.8184 0.836037C10.8184 0.61466 10.9063 0.40235 11.0629 0.245812C11.2194 0.0892748 11.4317 0.001333 11.6531 0.001333C13.8661 0.00376332 15.9877 0.883962 17.5526 2.44881C19.1174 4.01366 19.9976 6.13535 20 8.34838C20 8.56976 19.9121 8.78207 19.7555 8.9386C19.599 9.09514 19.3867 9.18308 19.1653 9.18308C18.9439 9.18308 18.7316 9.09514 18.5751 8.9386C18.4186 8.78207 18.3306 8.56976 18.3306 8.34838C18.3286 6.57797 17.6245 4.88064 16.3726 3.62877C15.1208 2.3769 13.4235 1.67273 11.6531 1.67074C11.4317 1.67074 11.2194 1.5828 11.0629 1.42626C10.9063 1.26973 10.8184 1.05741 10.8184 0.836037ZM11.6531 5.00956C12.5386 5.00956 13.3878 5.36133 14.0139 5.98748C14.6401 6.61363 14.9918 7.46287 14.9918 8.34838C14.9918 8.56976 15.0798 8.78207 15.2363 8.9386C15.3929 9.09514 15.6052 9.18308 15.8265 9.18308C16.0479 9.18308 16.2602 9.09514 16.4168 8.9386C16.5733 8.78207 16.6612 8.56976 16.6612 8.34838C16.6599 7.02052 16.1318 5.74743 15.1929 4.80849C14.254 3.86955 12.9809 3.34148 11.6531 3.34015C11.4317 3.34015 11.2194 3.42809 11.0629 3.58463C10.9063 3.74117 10.8184 3.95348 10.8184 4.17486C10.8184 4.39623 10.9063 4.60854 11.0629 4.76508C11.2194 4.92162 11.4317 5.00956 11.6531 5.00956ZM19.2429 13.9735C19.7266 14.4585 19.9983 15.1156 19.9983 15.8006C19.9983 16.4856 19.7266 17.1427 19.2429 17.6278L18.4834 18.5034C11.6472 25.0483 -4.98819 8.41682 1.45564 1.55889L2.41554 0.724187C2.90113 0.253979 3.55233 -0.00613838 4.22824 0.000110022C4.90415 0.00635842 5.55043 0.27847 6.02725 0.757575C6.05313 0.783451 7.59981 2.79258 7.59981 2.79258C8.05875 3.27473 8.31423 3.9152 8.31314 4.58086C8.31205 5.24651 8.05448 5.88614 7.59397 6.36679L6.62739 7.58212C7.1623 8.88185 7.94876 10.0631 8.94159 11.0579C9.93441 12.0527 11.114 12.8416 12.4126 13.3791L13.6355 12.4067C14.1162 11.9466 14.7557 11.6893 15.4211 11.6883C16.0866 11.6874 16.7268 11.9429 17.2088 12.4017C17.2088 12.4017 19.2171 13.9476 19.2429 13.9735ZM18.0944 15.1871C18.0944 15.1871 16.097 13.6504 16.0711 13.6245C15.8991 13.454 15.6668 13.3584 15.4246 13.3584C15.1825 13.3584 14.9501 13.454 14.7782 13.6245C14.7556 13.6479 13.0721 14.9893 13.0721 14.9893C12.9586 15.0796 12.8236 15.1388 12.6803 15.161C12.537 15.1833 12.3904 15.1678 12.2549 15.1162C10.5725 14.4898 9.04444 13.5091 7.77412 12.2407C6.5038 10.9722 5.52093 9.44554 4.89207 7.76409C4.83631 7.62674 4.81813 7.47702 4.8394 7.33032C4.86067 7.18362 4.92063 7.04523 5.0131 6.92938C5.0131 6.92938 6.35445 5.24495 6.37699 5.22324C6.54749 5.05128 6.64315 4.81893 6.64315 4.57677C6.64315 4.3346 6.54749 4.10225 6.37699 3.93029C6.35111 3.90525 4.81444 1.90613 4.81444 1.90613C4.63991 1.74963 4.41212 1.66581 4.17778 1.67187C3.94343 1.67792 3.72028 1.77338 3.55406 1.93868L2.59416 2.77339C-2.11517 8.43602 12.3008 22.0526 17.263 17.3632L18.0234 16.4867C18.2016 16.3217 18.3087 16.0938 18.3219 15.8513C18.3351 15.6088 18.2536 15.3706 18.0944 15.1871Z" fill="#EE1922"/>
</svg>
