<svg width="20" height="17" viewBox="0 0 20 17" fill="none" xmlns="http://www.w3.org/2000/svg">
<path d="M15.8333 0H4.16667C3.062 0.00118574 2.00296 0.394944 1.22185 1.0949C0.440735 1.79486 0.00132321 2.74387 0 3.73377L0 12.6948C0.00132321 13.6847 0.440735 14.6337 1.22185 15.3337C2.00296 16.0336 3.062 16.4274 4.16667 16.4286H15.8333C16.938 16.4274 17.997 16.0336 18.7782 15.3337C19.5593 14.6337 19.9987 13.6847 20 12.6948V3.73377C19.9987 2.74387 19.5593 1.79486 18.7782 1.0949C17.997 0.394944 16.938 0.00118574 15.8333 0ZM4.16667 1.49351H15.8333C16.3323 1.49439 16.8196 1.62905 17.2325 1.88018C17.6453 2.1313 17.9649 2.4874 18.15 2.90263L11.7683 8.62201C11.2987 9.04118 10.6628 9.27652 10 9.27652C9.33715 9.27652 8.70131 9.04118 8.23167 8.62201L1.85 2.90263C2.03512 2.4874 2.35468 2.1313 2.76754 1.88018C3.1804 1.62905 3.66768 1.49439 4.16667 1.49351ZM15.8333 14.9351H4.16667C3.50363 14.9351 2.86774 14.699 2.3989 14.2789C1.93006 13.8588 1.66667 13.289 1.66667 12.6948V4.8539L7.05333 9.67792C7.83552 10.3771 8.89521 10.7697 10 10.7697C11.1048 10.7697 12.1645 10.3771 12.9467 9.67792L18.3333 4.8539V12.6948C18.3333 13.289 18.0699 13.8588 17.6011 14.2789C17.1323 14.699 16.4964 14.9351 15.8333 14.9351Z" fill="#EE1922"/>
</svg>
