<svg version="1.2" xmlns="http://www.w3.org/2000/svg" viewBox="0 0 25 25" width="25" height="25">
	<title>time-black-svg</title>
	<defs>
		<clipPath clipPathUnits="userSpaceOnUse" id="cp1">
			<path d="m0 0h25v25h-25z"/>
		</clipPath>
	</defs>
	<style>
		.s0 { fill: #000000 } 
	</style>
	<filter id="f0">
		<feFlood flood-color="#ffffff" flood-opacity="1" />
		<feBlend mode="normal" in2="SourceGraphic"/>
		<feComposite in2="SourceAlpha" operator="in" />
	</filter>
	<g id="Clip-Path" clip-path="url(#cp1)" filter="url(#f0)">
		<g id="Layer">
			<path id="Layer" class="s0" d="m10.4 24c0 0.2-0.1 0.5-0.3 0.7q-0.3 0.3-0.7 0.3h-8.4q-0.4 0-0.7-0.3c-0.2-0.2-0.3-0.5-0.3-0.7q0-0.5 0.3-0.8 0.3-0.3 0.7-0.3h8.4q0.4 0 0.7 0.3 0.3 0.3 0.3 0.8z"/>
			<path id="Layer" class="s0" d="m1 20.8h6.3q0.4 0 0.7-0.3c0.2-0.2 0.3-0.4 0.3-0.7q0-0.4-0.3-0.7-0.3-0.3-0.7-0.4h-6.3q-0.4 0.1-0.7 0.4-0.3 0.3-0.3 0.7c0 0.3 0.1 0.5 0.3 0.7q0.3 0.3 0.7 0.3z"/>
			<path id="Layer" class="s0" d="m1 16.7h4.2q0.4 0 0.7-0.3c0.2-0.2 0.3-0.5 0.3-0.8q0-0.4-0.3-0.7-0.3-0.3-0.7-0.3h-4.2q-0.4 0-0.7 0.3-0.3 0.3-0.3 0.7c0 0.3 0.1 0.6 0.3 0.8q0.3 0.3 0.7 0.3z"/>
			<path id="Layer" fill-rule="evenodd" class="s0" d="m21.3 3.7c2.4 2.3 3.7 5.5 3.7 8.8 0 3.3-1.3 6.5-3.7 8.8-2.3 2.4-5.5 3.7-8.8 3.7q-0.1 0-0.2 0 0.2-0.6 0.2-1.3-0.1-0.6-0.4-1.2-0.3-0.6-0.8-1-0.5-0.4-1.1-0.5 0.2-0.7 0.2-1.3 0-0.7-0.3-1.3-0.3-0.6-0.8-1-0.5-0.4-1.2-0.6 0.3-0.7 0.2-1.5-0.1-0.8-0.5-1.4-0.4-0.7-1.1-1-0.7-0.4-1.5-0.4h-4.2q-0.5 0-1 0.2 0-0.1 0-0.2c0-3.3 1.3-6.5 3.7-8.8 2.3-2.4 5.5-3.7 8.8-3.7 3.3 0 6.5 1.3 8.8 3.7zm-4.6 11.9q0-0.4-0.3-0.7l-2.9-2.8v-4.8q0-0.4-0.3-0.7-0.3-0.3-0.7-0.4-0.4 0.1-0.7 0.4-0.3 0.3-0.3 0.7v5.2c0 0.3 0.1 0.5 0.3 0.7l3.1 3.2q0.3 0.3 0.7 0.3 0.5 0 0.8-0.3 0.3-0.3 0.3-0.8z"/>
		</g>
	</g>
</svg>