<svg width="25" height="25" viewBox="0 0 25 25" fill="none" xmlns="http://www.w3.org/2000/svg">
<g clip-path="url(#clip0_106_709)">
<path d="M10.4167 23.9582C10.4167 24.2344 10.3069 24.4994 10.1116 24.6947C9.91622 24.8901 9.65127 24.9998 9.375 24.9998H1.04167C0.7654 24.9998 0.500448 24.8901 0.305097 24.6947C0.109747 24.4994 0 24.2344 0 23.9582C0 23.6819 0.109747 23.417 0.305097 23.2216C0.500448 23.0262 0.7654 22.9165 1.04167 22.9165H9.375C9.65127 22.9165 9.91622 23.0262 10.1116 23.2216C10.3069 23.417 10.4167 23.6819 10.4167 23.9582Z" fill="black"/>
<path d="M1.04167 20.8333H7.29167C7.56793 20.8333 7.83289 20.7236 8.02824 20.5282C8.22359 20.3329 8.33333 20.0679 8.33333 19.7917C8.33333 19.5154 8.22359 19.2504 8.02824 19.0551C7.83289 18.8597 7.56793 18.75 7.29167 18.75H1.04167C0.765399 18.75 0.500448 18.8597 0.305097 19.0551C0.109747 19.2504 0 19.5154 0 19.7917C0 20.0679 0.109747 20.3329 0.305097 20.5282C0.500448 20.7236 0.765399 20.8333 1.04167 20.8333Z" fill="black"/>
<path d="M1.04167 16.6668H5.20833C5.4846 16.6668 5.74955 16.5571 5.9449 16.3617C6.14025 16.1664 6.25 15.9014 6.25 15.6252C6.25 15.3489 6.14025 15.0839 5.9449 14.8886C5.74955 14.6932 5.4846 14.5835 5.20833 14.5835H1.04167C0.765399 14.5835 0.500448 14.6932 0.305097 14.8886C0.109747 15.0839 0 15.3489 0 15.6252C0 15.9014 0.109747 16.1664 0.305097 16.3617C0.500448 16.5571 0.765399 16.6668 1.04167 16.6668Z" fill="black"/>
<path d="M12.5 0C9.18479 0 6.00537 1.31696 3.66116 3.66116C1.31696 6.00537 0 9.18479 0 12.5C0 12.5635 0.00833333 12.625 0.009375 12.6885C0.340204 12.5673 0.689336 12.5035 1.04167 12.5H5.20833C5.71969 12.4983 6.2236 12.6225 6.67558 12.8616C7.12756 13.1008 7.5137 13.4476 7.79991 13.8713C8.08612 14.2951 8.26359 14.7828 8.31665 15.2914C8.36972 15.8 8.29674 16.3138 8.10417 16.7875C8.53067 16.8994 8.92838 17.1011 9.27073 17.379C9.61307 17.6569 9.89216 18.0047 10.0894 18.3991C10.2866 18.7935 10.3973 19.2254 10.4142 19.666C10.4312 20.1066 10.3539 20.5458 10.1875 20.9542C10.6041 21.0604 10.9937 21.253 11.3312 21.5193C11.6687 21.7856 11.9465 22.1198 12.1467 22.5003C12.3469 22.8807 12.465 23.299 12.4934 23.728C12.5218 24.1569 12.4598 24.5871 12.3115 24.9906C12.375 24.9906 12.4365 25 12.5 25C15.8152 25 18.9946 23.683 21.3388 21.3388C23.683 18.9946 25 15.8152 25 12.5C25 9.18479 23.683 6.00537 21.3388 3.66116C18.9946 1.31696 15.8152 0 12.5 0ZM16.3615 16.3615C16.1661 16.5567 15.9012 16.6664 15.625 16.6664C15.3488 16.6664 15.0839 16.5567 14.8885 16.3615L11.7635 13.2365C11.5682 13.0412 11.4584 12.7762 11.4583 12.5V7.29167C11.4583 7.0154 11.5681 6.75045 11.7634 6.5551C11.9588 6.35975 12.2237 6.25 12.5 6.25C12.7763 6.25 13.0412 6.35975 13.2366 6.5551C13.4319 6.75045 13.5417 7.0154 13.5417 7.29167V12.0688L16.3615 14.8885C16.5567 15.0839 16.6664 15.3488 16.6664 15.625C16.6664 15.9012 16.5567 16.1661 16.3615 16.3615Z" fill="black"/>
</g>
<defs>
<clipPath id="clip0_106_709">
<rect width="25" height="25" fill="white"/>
</clipPath>
</defs>
</svg>
