<svg width="20" height="20" viewBox="0 0 20 20" fill="none" xmlns="http://www.w3.org/2000/svg">
<path d="M0 10C0 11.9778 0.58649 13.9112 1.6853 15.5557C2.78412 17.2002 4.3459 18.4819 6.17316 19.2388C8.00043 19.9957 10.0111 20.1937 11.9509 19.8078C13.8907 19.422 15.6725 18.4696 17.0711 17.0711C18.4696 15.6725 19.422 13.8907 19.8078 11.9509C20.1937 10.0111 19.9957 8.00043 19.2388 6.17316C18.4819 4.3459 17.2002 2.78412 15.5557 1.6853C13.9112 0.58649 11.9778 0 10 0C7.34871 0.00286757 4.80684 1.05736 2.9321 2.9321C1.05736 4.80684 0.00286757 7.34871 0 10ZM9.66667 5.22417L13.9617 9.46333C14.0332 9.53319 14.0901 9.61666 14.1289 9.70883C14.1677 9.80099 14.1877 9.89999 14.1877 10C14.1877 10.1 14.1677 10.199 14.1289 10.2912C14.0901 10.3833 14.0332 10.4668 13.9617 10.5367L9.66667 14.7758C9.55935 14.8824 9.42303 14.955 9.27472 14.9846C9.12641 15.0142 8.97266 14.9994 8.83268 14.9422C8.69269 14.8849 8.57267 14.7877 8.48757 14.6627C8.40247 14.5377 8.35607 14.3904 8.35417 14.2392V5.76083C8.35607 5.60961 8.40247 5.4623 8.48757 5.33727C8.57267 5.21225 8.69269 5.11506 8.83268 5.05782C8.97266 5.00058 9.12641 4.98583 9.27472 5.01542C9.42303 5.045 9.55935 5.1176 9.66667 5.22417Z" fill="white"/>
</svg>
